# xmcd CD database file
#
# Track frame offsets:
#	150
#	22272
#	44612
#	61942
#
# Disc length: 1119 seconds
#
# Revision: 1
# Processed by: cddbd v1.5.2PL0 Copyright (c) Steve Scherf et al.
# Submitted via: CDex 1.70beta2
#
DISCID=34045d04
DTITLE=ロイ・マスタング(大川透) - ハガレン・ソングファイル-ロイ・マスタング-
DYEAR=2004
DGENRE=Anime
TTITLE0=月の裏側
TTITLE1=少年よ、信じるなかまよ
TTITLE2=雨の日はノー・サンキュー
TTITLE3=月の裏側(ｉｎｓｔｒｕｍｅｎｔａｌ)
EXTD=YEAR: 2004
EXTT0=
EXTT1=
EXTT2=
EXTT3=
PLAYORDER=
